<svg width="36" height="36" viewBox="0 0 36 36" fill="none" xmlns="http://www.w3.org/2000/svg">
    <circle cx="10" cy="24" r="3" fill="white"/>
    <circle cx="25" cy="24" r="3" fill="white"/>
    <path fill-rule="evenodd" clip-rule="evenodd" d="M12.2927 1.7561C12.2927 0.786276 11.5064 0 10.5366 0C9.56675 0 8.78048 0.786276 8.78048 1.7561V2.64472C7.90956 2.6583 7.13565 2.68944 6.45407 2.76065C5.19063 2.89277 4.04533 3.17772 3.0268 3.88262C2.33191 4.36362 1.72946 4.96606 1.24847 5.66095C0.543569 6.67949 0.258589 7.82478 0.126495 9.08823C0.0105647 10.1977 0.000825586 11.5516 0.000137195 13.1708L2.36506e-10 13.4403V13.6256V23.8313C2.36506e-10 26.2092 -0.00013718 28.1703 0.208537 29.722C0.427638 31.3513 0.905216 32.7902 2.05739 33.9426C3.20957 35.0948 4.64859 35.5723 6.278 35.7913C7.82997 36.0001 9.7909 36 12.1687 36H22.9529C25.3309 36 27.2918 36.0001 28.8439 35.7913C30.4732 35.5724 31.9121 35.0948 33.0645 33.9426C34.2167 32.7903 34.6942 31.3514 34.9135 29.722C35.122 28.17 35.1219 26.2091 35.1219 23.8313V13.6256V13.4652V13.1708C35.121 11.5516 35.1113 10.1978 34.9952 9.08823C34.8634 7.82478 34.5783 6.67949 33.8734 5.66095C33.3926 4.96606 32.79 4.36362 32.0951 3.88262C31.0765 3.17772 29.9312 2.89274 28.6678 2.76065C27.9861 2.68945 27.2124 2.6583 26.3414 2.64472V1.7561C26.3414 0.786276 25.5551 0 24.5853 0C23.6155 0 22.8292 0.786276 22.8292 1.7561V2.63415H12.2926L12.2927 1.7561ZM31.6098 13.1707C31.6085 11.5262 31.5974 10.3629 31.5025 9.45308C31.4003 8.47627 31.2171 7.99401 30.9857 7.65968C30.7451 7.31217 30.444 7.01101 30.0965 6.77053C29.7622 6.53909 29.2799 6.35592 28.303 6.25385C27.7571 6.19678 27.1195 6.17003 26.3416 6.1574V7.02436C26.3416 7.99418 25.5553 8.78045 24.5855 8.78045C23.6157 8.78045 22.8294 7.99418 22.8294 7.02436V6.14631H12.2928V7.02436C12.2928 7.99418 11.5066 8.78045 10.5367 8.78045C9.56691 8.78045 8.78063 7.99418 8.78063 7.02436V6.1574C8.00261 6.17003 7.36518 6.19678 6.81914 6.25385C5.84233 6.35593 5.36007 6.53908 5.02574 6.77053C4.67823 7.01104 4.37707 7.31218 4.13659 7.65968C3.90515 7.99402 3.72198 8.47627 3.61991 9.45308C3.52484 10.3628 3.51372 11.5261 3.51249 13.1707H31.6098ZM3.51218 16.6829V23.7073C3.51218 26.2405 3.51589 27.9634 3.68944 29.2541C3.85613 30.494 4.14999 31.0681 4.54087 31.4591C4.93174 31.85 5.50602 32.144 6.74586 32.3106C8.03631 32.4841 9.7595 32.4878 12.2927 32.4878H22.8293C25.3624 32.4878 27.0853 32.4841 28.3761 32.3106C29.6159 32.144 30.1901 31.85 30.5811 31.4591C30.9719 31.0681 31.2659 30.494 31.4325 29.2541C31.606 27.9636 31.6098 26.2405 31.6098 23.7073V16.6829H3.51218Z" fill="white"/>
</svg>
