<svg width="40" height="40" viewBox="0 0 40 40" fill="none" xmlns="http://www.w3.org/2000/svg">
    <path fill-rule="evenodd" clip-rule="evenodd" d="M30.0002 21.502C35.0629 21.502 39.1669 25.606 39.1669 30.6686V34.8353H35.8336V30.6686C35.8336 27.447 33.2219 24.8353 30.0002 24.8353V21.502Z" fill="white"/>
    <path fill-rule="evenodd" clip-rule="evenodd" d="M25.8335 16.5007C26.3807 16.5007 26.9225 16.3929 27.428 16.1835C27.9335 15.9741 28.3929 15.6672 28.7798 15.2803C29.1667 14.8934 29.4736 14.434 29.683 13.9285C29.8924 13.423 30.0002 12.8812 30.0002 12.334C30.0002 11.7868 29.8924 11.245 29.683 10.7395C29.4736 10.2339 29.1667 9.77462 28.7798 9.38771C28.3929 9.0008 27.9335 8.69388 27.428 8.48449C26.9225 8.27509 26.3807 8.16732 25.8335 8.16732L25.8335 4.83398C26.8184 4.83398 27.7937 5.02798 28.7036 5.40489C29.6136 5.7818 30.4404 6.33424 31.1368 7.03068C31.8332 7.72712 32.3857 8.55392 32.7626 9.46386C33.1395 10.3738 33.3335 11.3491 33.3335 12.334C33.3335 13.3189 33.1395 14.2942 32.7626 15.2041C32.3857 16.1141 31.8332 16.9408 31.1368 17.6373C30.4404 18.3337 29.6136 18.8862 28.7036 19.2631C27.7937 19.64 26.8184 19.834 25.8335 19.834L25.8335 16.5007Z" fill="white"/>
    <path fill-rule="evenodd" clip-rule="evenodd" d="M1.66675 31.502C1.66675 25.9791 6.1439 21.502 11.6667 21.502H20.0001C25.5229 21.502 30.0001 25.9791 30.0001 31.502V32.3353C30.0001 33.716 28.8808 34.8353 27.5001 34.8353H4.16675C2.78604 34.8353 1.66675 33.716 1.66675 32.3353V31.502Z" fill="white"/>
    <path fill-rule="evenodd" clip-rule="evenodd" d="M8.3335 12.334C8.3335 8.19185 11.6914 4.83398 15.8335 4.83398C19.9756 4.83398 23.3335 8.19185 23.3335 12.334C23.3335 16.4761 19.9756 19.834 15.8335 19.834C11.6914 19.834 8.3335 16.4761 8.3335 12.334Z" fill="white"/>
</svg>

