<svg width="28" height="36" viewBox="0 0 28 36" fill="none" xmlns="http://www.w3.org/2000/svg">
    <path d="M24.0001 12.3327H22.3334V8.99935C22.3334 4.39935 18.6001 0.666016 14.0001 0.666016C9.40008 0.666016 5.66675 4.39935 5.66675 8.99935V12.3327H4.00008C2.16675 12.3327 0.666748 13.8327 0.666748 15.666V32.3327C0.666748 34.166 2.16675 35.666 4.00008 35.666H24.0001C25.8334 35.666 27.3334 34.166 27.3334 32.3327V15.666C27.3334 13.8327 25.8334 12.3327 24.0001 12.3327ZM9.00008 8.99935C9.00008 6.23268 11.2334 3.99935 14.0001 3.99935C16.7667 3.99935 19.0001 6.23268 19.0001 8.99935V12.3327H9.00008V8.99935ZM24.0001 32.3327H4.00008V15.666H24.0001V32.3327ZM14.0001 27.3327C15.8334 27.3327 17.3334 25.8327 17.3334 23.9993C17.3334 22.166 15.8334 20.666 14.0001 20.666C12.1667 20.666 10.6667 22.166 10.6667 23.9993C10.6667 25.8327 12.1667 27.3327 14.0001 27.3327Z" fill="white"/>
</svg>
