<svg width="34" height="36" viewBox="0 0 34 36" fill="none" xmlns="http://www.w3.org/2000/svg">
    <path d="M33.491 20.2112C32.8116 18.3951 31.4662 16.9524 29.702 16.1496C28.7486 15.7155 27.7386 15.4968 26.6979 15.4968C25.3978 15.4968 24.1563 15.8608 23.0722 16.4874L16.7172 8.53634C16.8493 8.32695 16.9706 8.10955 17.0759 7.88104C18.348 5.08473 17.1093 1.77408 14.3149 0.501987C13.5836 0.168562 12.8074 0 12.0095 0C9.83003 0 7.83788 1.2802 6.93361 3.26294C5.66086 6.05845 6.90021 9.3689 9.69572 10.644C10.427 10.9774 11.2038 11.146 12.0011 11.146C13.1739 11.146 14.2867 10.7647 15.2113 10.1119L21.3823 17.832C20.8629 18.3914 20.4189 19.0268 20.0935 19.7429C19.4495 21.1537 19.2855 22.6998 19.5908 24.1913L10.3821 27.5443C9.80742 26.5895 8.96536 25.8287 7.92913 25.3574C7.19783 25.0234 6.42102 24.8546 5.62231 24.8546C3.44345 24.8546 1.4513 26.136 0.549931 28.1168C-0.0675155 29.4702 -0.12082 30.9844 0.401284 32.3784C0.922623 33.7719 1.9553 34.88 3.3101 35.4961C4.04221 35.8295 4.81882 36 5.61968 36C7.79719 36 9.78659 34.7187 10.6896 32.7365C11.1462 31.7297 11.2916 30.639 11.1236 29.5743L20.3308 26.2213C21.0769 27.5974 22.2376 28.6975 23.6877 29.3569C24.6424 29.7909 25.6525 30.0103 26.6953 30.0103C29.5328 30.0103 32.1242 28.3414 33.2978 25.7605C34.1009 23.9977 34.1709 22.0277 33.491 20.2116L33.491 20.2112ZM8.7216 31.8386C8.16881 33.0514 6.95077 33.836 5.61747 33.836C5.13012 33.836 4.65469 33.7321 4.20406 33.528C3.3747 33.1492 2.7426 32.4718 2.42328 31.6192C2.10333 30.7658 2.13595 29.8404 2.51391 29.0104C3.0667 27.7976 4.28609 27.0116 5.62019 27.0116C6.10695 27.0116 6.58216 27.1169 7.03025 27.3216C7.86096 27.699 8.49306 28.3777 8.81103 29.2297C9.13019 30.0826 9.09953 31.0092 8.72157 31.8385L8.7216 31.8386Z" fill="white"/>
</svg>
