<svg width="30" height="38" viewBox="0 0 30 38" fill="none" xmlns="http://www.w3.org/2000/svg">
    <path d="M12.9207 13.3024L12.2042 1.0638C12.1925 0.852113 12.269 0.645077 12.4154 0.491102C12.562 0.337279 12.7657 0.25 12.9787 0.25H17.0214C17.2344 0.25 17.4382 0.337279 17.5847 0.491102C17.7311 0.645086 17.8076 0.852109 17.7959 1.0638L17.0796 13.3024H12.9207ZM24.468 15.617H5.53237C4.19106 15.6184 2.90519 16.1492 1.95673 17.0925C1.00844 18.0359 0.474845 19.3148 0.473397 20.6489V22.1971H29.527V20.6489C29.5255 19.3148 28.9919 18.0359 28.0436 17.0925C27.0952 16.1491 25.8093 15.6184 24.468 15.617ZM0.47319 37.75H5.53609V32.7822C5.53609 32.3688 5.75781 31.9867 6.11784 31.7801C6.47773 31.5734 6.92134 31.5734 7.28138 31.7801C7.64127 31.9868 7.86313 32.3688 7.86313 32.7822V37.75H17.4242V29.0538C17.4242 28.6404 17.6461 28.2583 18.006 28.0517C18.366 27.8449 18.8096 27.8449 19.1695 28.0517C19.5296 28.2584 19.7513 28.6404 19.7513 29.0538V37.75H22.5651V33.5278C22.5651 33.1144 22.7868 32.7323 23.1469 32.5257C23.5069 32.3188 23.9504 32.3188 24.3104 32.5257C24.6705 32.7324 24.8922 33.1144 24.8922 33.5278V37.75H29.5265V24.5119H0.4729L0.47319 37.75Z" fill="white"/>
</svg>
